<svg xmlns="http://www.w3.org/2000/svg" xmlns:xlink="http://www.w3.org/1999/xlink" width="670.7" height="473.632" viewBox="0 0 670.7 473.632">
  <defs>
    <linearGradient id="linear-gradient" x1="0.515" y1="2.629" x2="0.388" y2="4.092" gradientUnits="objectBoundingBox">
      <stop offset="0" stop-color="#a1c3fc"/>
      <stop offset="0.696" stop-color="#81aef2"/>
      <stop offset="1" stop-color="#78a9ef"/>
    </linearGradient>
    <linearGradient id="linear-gradient-2" x1="0.746" y1="3.834" x2="-0.168" y2="4.761" xlink:href="#linear-gradient"/>
    <linearGradient id="linear-gradient-3" x1="0.293" y1="2.194" x2="1.053" y2="3.243" xlink:href="#linear-gradient"/>
    <linearGradient id="linear-gradient-4" x1="0.433" y1="14.216" x2="0.521" y2="16.493" gradientUnits="objectBoundingBox">
      <stop offset="0.09" stop-color="#eee"/>
      <stop offset="0.818" stop-color="#d6d7d8"/>
    </linearGradient>
    <linearGradient id="linear-gradient-5" x1="0.749" y1="-19.226" x2="-0.141" y2="-20.489" xlink:href="#linear-gradient-4"/>
    <linearGradient id="linear-gradient-6" x1="0.511" y1="3.003" x2="0.491" y2="1.47" gradientUnits="objectBoundingBox">
      <stop offset="0.129" stop-color="#428dfc"/>
      <stop offset="0.999" stop-color="#1d72d8"/>
    </linearGradient>
    <linearGradient id="linear-gradient-7" x1="1.064" y1="-4.836" x2="0.52" y2="-5.151" gradientUnits="objectBoundingBox">
      <stop offset="0.14" stop-color="#e94a47"/>
      <stop offset="1" stop-color="#c63030"/>
    </linearGradient>
    <linearGradient id="linear-gradient-8" x1="0.472" y1="-23.11" x2="0.523" y2="-19.779" gradientUnits="objectBoundingBox">
      <stop offset="0" stop-color="#23286b"/>
      <stop offset="1" stop-color="#151a4f"/>
    </linearGradient>
    <linearGradient id="linear-gradient-9" x1="-2.927" y1="-7.703" x2="1.178" y2="-8.969" xlink:href="#linear-gradient-8"/>
    <linearGradient id="linear-gradient-10" x1="0.517" y1="-3.444" x2="0.405" y2="-4.425" xlink:href="#linear-gradient-8"/>
    <linearGradient id="linear-gradient-11" x1="0.568" y1="-27.745" x2="-0.052" y2="-26.987" xlink:href="#linear-gradient-8"/>
    <linearGradient id="linear-gradient-12" x1="-0.071" y1="-25.794" x2="0.426" y2="-27.666" xlink:href="#linear-gradient-8"/>
    <linearGradient id="linear-gradient-13" x1="0.808" y1="-19.33" x2="-0.748" y2="-20.581" xlink:href="#linear-gradient-4"/>
    <linearGradient id="linear-gradient-14" x1="0.905" y1="-19.146" x2="-0.29" y2="-20.42" xlink:href="#linear-gradient-4"/>
    <linearGradient id="linear-gradient-15" x1="-0.44" y1="-10.934" x2="0.396" y2="-11.75" xlink:href="#linear-gradient-6"/>
    <linearGradient id="linear-gradient-16" x1="-0.5" y1="-0.675" x2="0.927" y2="-0.57" xlink:href="#linear-gradient-8"/>
    <linearGradient id="linear-gradient-17" x1="0.827" y1="-19.121" x2="-0.12" y2="-20.452" xlink:href="#linear-gradient-4"/>
    <linearGradient id="linear-gradient-18" x1="0.004" y1="6.971" x2="0.996" y2="6.971" xlink:href="#linear-gradient-8"/>
    <linearGradient id="linear-gradient-19" x1="0.003" y1="21.22" x2="0.995" y2="21.22" xlink:href="#linear-gradient-8"/>
    <linearGradient id="linear-gradient-20" x1="0" y1="-0.15" x2="1" y2="-0.15" xlink:href="#linear-gradient-4"/>
    <linearGradient id="linear-gradient-21" x1="0" y1="-0.801" x2="1" y2="-0.801" xlink:href="#linear-gradient-8"/>
    <linearGradient id="linear-gradient-22" x1="0.439" y1="-0.743" x2="0.12" y2="-0.434" xlink:href="#linear-gradient-8"/>
    <linearGradient id="linear-gradient-23" x1="-0.015" y1="2.614" x2="1.091" y2="1.392" gradientUnits="objectBoundingBox">
      <stop offset="0" stop-color="#27009c"/>
      <stop offset="1" stop-color="#190062"/>
    </linearGradient>
    <linearGradient id="linear-gradient-24" x1="-0.001" y1="2.379" x2="1" y2="2.379" xlink:href="#linear-gradient-8"/>
    <linearGradient id="linear-gradient-25" x1="0.698" y1="-0.737" x2="-0.35" y2="-0.198" xlink:href="#linear-gradient-8"/>
    <linearGradient id="linear-gradient-26" x1="0" y1="0.948" x2="1" y2="0.948" xlink:href="#linear-gradient"/>
    <linearGradient id="linear-gradient-27" x1="0.543" y1="6.101" x2="0.378" y2="4.467" xlink:href="#linear-gradient-7"/>
    <linearGradient id="linear-gradient-28" x1="0.786" y1="2.424" x2="-0.181" y2="3.613" gradientUnits="objectBoundingBox">
      <stop offset="0" stop-color="#ffbeb6"/>
      <stop offset="1" stop-color="#f2a19c"/>
    </linearGradient>
    <linearGradient id="linear-gradient-29" x1="0.165" y1="8.237" x2="0.885" y2="9.607" xlink:href="#linear-gradient-28"/>
    <linearGradient id="linear-gradient-30" x1="0.599" y1="0.713" x2="-0.017" y2="1.205" xlink:href="#linear-gradient"/>
  </defs>
  <g id="illustration" transform="translate(-130.1 -96)" style="isolation: isolate">
    <g id="table" transform="translate(130.1 96)">
      <rect id="lamp_3" width="9.937" height="22.889" transform="translate(615.543 190.592)" fill="url(#linear-gradient)"/>
      <path id="lamp_1" d="M723.308,188.449l-6.364,8.262L595.8,96h15.966Z" transform="translate(-75.832 -96)" fill="url(#linear-gradient-2)"/>
      <path id="lamp_2" d="M691.337,271.889H681.4L705.964,184.8H715.9Z" transform="translate(-65.857 -85.652)" fill="url(#linear-gradient-3)"/>
      <path id="lamp_bulb" d="M559,96v.223a28.527,28.527,0,0,0,57.055,0V96Z" transform="translate(-80.12 -96)" fill="url(#linear-gradient-4)"/>
      <path id="laptop" d="M664.237,297.259H489.612L489.5,291.9H664.125Z" transform="translate(-88.219 -73.172)" fill="#1e0077"/>
      <circle id="wheel_3" cx="11.612" cy="11.612" r="11.612" transform="translate(246.977 450.408)" fill="url(#linear-gradient-5)"/>
      <rect id="M_monitor_base" width="36.511" height="33.831" transform="translate(291.191 185.456)" fill="url(#linear-gradient-6)"/>
      <rect id="M_monitor_base-2" width="90.216" height="5.359" transform="translate(265.846 218.84)" fill="#428dfc"/>
      <rect id="L_monitor_base" width="30.035" height="15.073" transform="translate(102.163 204.325)" fill="#2b52d9"/>
      <rect id="L_monitor_base-2" width="70.9" height="4.801" transform="translate(82.288 219.398)" fill="#1c41bf"/>
      <rect id="chair_seat" width="152.853" height="28.248" transform="translate(151.178 294.764)" fill="url(#linear-gradient-7)"/>
      <path id="chair_bottom_1" d="M309,385.3h55.492a8.839,8.839,0,0,1-8.821,8.821H317.932A8.794,8.794,0,0,1,309,385.3Z" transform="translate(-109.253 -62.288)" fill="url(#linear-gradient-8)"/>
      <rect id="chair_bottom_2" width="13.622" height="24.899" transform="translate(220.626 331.721)" fill="url(#linear-gradient-9)"/>
      <path id="chair_bottom_3" d="M333.432,413h3.015a8.958,8.958,0,0,1,8.932,8.932v72.8H324.5v-72.8A8.817,8.817,0,0,1,333.432,413Z" transform="translate(-107.447 -59.06)" fill="url(#linear-gradient-10)"/>
      <path id="leg_4" d="M333.9,486.2h51.36a11.365,11.365,0,0,1,11.389,11.389v3.685h-3.685v-2.345a9.006,9.006,0,0,0-9.044-9.044H333.9Z" transform="translate(-106.351 -50.53)" fill="url(#linear-gradient-11)"/>
      <path id="leg_3" d="M333.9,486.2h21.661a11.365,11.365,0,0,1,11.389,11.389v3.685h-3.685v-2.345a9.006,9.006,0,0,0-9.044-9.044H333.9Z" transform="translate(-106.351 -50.53)" fill="#23286b"/>
      <path id="leg_1" d="M340.649,486.2h-51.36A11.365,11.365,0,0,0,277.9,497.589v3.685h3.685v-2.345a9.006,9.006,0,0,1,9.044-9.044h50.021Z" transform="translate(-112.877 -50.53)" fill="url(#linear-gradient-12)"/>
      <path id="leg_2" d="M337.549,486.2H315.889A11.365,11.365,0,0,0,304.5,497.589v3.685h3.685v-2.345a9.006,9.006,0,0,1,9.044-9.044h20.321Z" transform="translate(-109.777 -50.53)" fill="#23286b"/>
      <circle id="wheel_2" cx="11.612" cy="11.612" r="11.612" transform="translate(184.897 450.408)" fill="url(#linear-gradient-13)"/>
      <circle id="wheel_4" cx="11.612" cy="11.612" r="11.612" transform="translate(276.9 450.408)" fill="url(#linear-gradient-14)"/>
      <path id="L_shoe" d="M374.7,486.6,361.3,524h94.682s-4.913-9.379-21.1-16.3-31.263-21.1-31.263-21.1H374.7" transform="translate(-103.158 -50.483)" fill="url(#linear-gradient-15)"/>
      <path id="L_leg" d="M313.2,335.045s12.393,28.583,49.574,32.491,22.107,41.758,18.869,47.676-7.257,11.054-9.6,20.209,1,20.991-2.68,27.69-19.2,29.253-14.4,44.1h54.375s31.375-123.488,29.253-135.658,1.34-22-31.375-37.18S352.5,309.7,352.5,309.7Z" transform="translate(-108.763 -71.097)" fill="url(#linear-gradient-16)"/>
      <circle id="wheel_1" cx="11.612" cy="11.612" r="11.612" transform="translate(155.198 450.408)" fill="url(#linear-gradient-17)"/>
      <circle id="lamp_2-2" cx="6.364" cy="6.364" r="6.364" transform="translate(614.315 181.325)" fill="url(#linear-gradient-18)"/>
      <circle id="lamp_1-2" cx="6.364" cy="6.364" r="6.364" transform="translate(638.656 90.662)" fill="url(#linear-gradient-19)"/>
      <rect id="table_top" width="670.7" height="27.355" transform="translate(0 224.088)" fill="url(#linear-gradient-20)"/>
      <rect id="table_bottom" width="645.131" height="8.709" transform="translate(9.379 251.331)" fill="#23286b"/>
      <path id="L_leg_table" d="M187.462,329l-38.3,207.34H138L176.409,329Z" transform="translate(-129.179 -68.848)" fill="url(#linear-gradient-21)"/>
      <path id="R_leg_table" d="M722.062,536.34H710.9L672.6,329h11.054Z" transform="translate(-66.882 -68.848)" fill="url(#linear-gradient-22)"/>
      <path id="R_monitor" d="M658.124,298.635H541L559.311,234.1H676.77Z" transform="translate(-82.218 -79.907)" fill="#27009c"/>
      <rect id="M_monitor" width="263.39" height="114.444" transform="translate(177.64 71.346)" fill="#27009c"/>
      <rect id="L_monitor" width="164.13" height="86.531" transform="translate(35.617 118.799)" fill="url(#linear-gradient-23)"/>
      <path id="lamp_base" d="M661.407,287.2h43.768a10.721,10.721,0,0,1,10.719,10.719H650.8A10.627,10.627,0,0,1,661.407,287.2Z" transform="translate(-69.423 -73.719)" fill="url(#linear-gradient-24)"/>
      <g id="text" transform="translate(48.792 104.284)">
        <rect id="_1_l" width="81.953" height="3.126" transform="translate(0 26.127)" fill="#fff"/>
        <rect id="_2_l" width="81.953" height="3.126" transform="translate(0 33.496)" fill="#fff"/>
        <rect id="_3_l" width="81.953" height="3.126" transform="translate(0 40.865)" fill="#fff"/>
        <rect id="_4_l" width="81.953" height="3.126" transform="translate(0 48.234)" fill="#fff"/>
        <path id="_1_r" d="M637.166,245.715l-75.366-.223.893-2.791,75.366.223Z" transform="translate(-128.586 -183.189)" fill="#fff"/>
        <path id="_2_r" d="M635.566,251.4l-75.366-.112.782-2.791,75.366.112Z" transform="translate(-128.773 -182.513)" fill="#fff"/>
        <path id="_3_r" d="M633.866,257.1l-75.366-.112.782-2.791,75.366.223Z" transform="translate(-128.971 -181.849)" fill="#fff"/>
        <path id="_4_r" d="M632.166,263.015l-75.366-.223.782-2.791,75.366.223Z" transform="translate(-129.169 -181.173)" fill="#fff"/>
        <g id="_" transform="translate(215.49 7.034)">
          <path id="_2" d="M374.616,215.686l15.185-16.3-4.02-3.685-18.088,19.316h0l-.893.893,1,.893,19.428,17.976,3.685-4.02Z" transform="translate(-366.8 -195.7)" fill="#fff"/>
          <path id="_3" d="M436.313,215.686l-15.185-16.3,4.02-3.685,17.976,19.428h0l.893.893-1,.893L423.585,234.89l-3.685-4.02Z" transform="translate(-360.612 -195.7)" fill="#fff"/>
        </g>
        <path id="_4" d="M410.643,189.4,394.9,241.207l5.024,1.452,15.743-51.807Z" transform="translate(-148.035 -189.4)" fill="#fff"/>
      </g>
    </g>
    <g id="man" transform="translate(255.054 174.911)">
      <path id="R_shoe" d="M405.7,486.6,392.3,524h94.682s-4.913-9.379-21.1-16.3-31.263-21.1-31.263-21.1H405.7" transform="translate(-224.499 -129.395)" fill="#2b52d9"/>
      <path id="R_leg" d="M322.907,328s-3.461,32.044,39.414,38.967,44.773,12.17,45.108,23.112-2.9,17.418-6.923,28.695-4.131,26.8-2.01,35.841-7.257,20.321-11.612,30.928a45.354,45.354,0,0,0-2.9,21.437h58.73s15.743-105.959,16.86-121.59,6.141-31.6-14.18-42.093-63.866-29.7-63.866-29.7Z" transform="translate(-232.593 -149.554)" fill="url(#linear-gradient-25)"/>
      <path id="texture" d="M352.67,332.686a.237.237,0,1,0,.335,0h0a.209.209,0,0,0-.335,0Zm-3.461,3.685a.237.237,0,1,0,.335,0c-.112-.112-.223,0-.335,0Zm19.428,8.374a.223.223,0,1,0,.223.223h0c0-.223-.112-.223-.223-.223Zm-5.136.112a.24.24,0,0,0-.223.223h0a.223.223,0,1,0,.223-.223Zm-5.024.223a.223.223,0,1,0,.223.223h0C358.7,345.079,358.588,345.079,358.476,345.079Zm-5.136.112a.24.24,0,0,0-.223.223h0a.223.223,0,0,0,.447,0h0A.24.24,0,0,0,353.34,345.191Zm7.592,19.539a.209.209,0,0,0,0,.335c.112.112.223.112.223,0h0a.209.209,0,0,0,0-.335C361.044,364.618,361.044,364.73,360.932,364.73Zm2.568-29.7c-.112,0-.112.223-.112.223l.223.112c.112,0,.112-.223.112-.223h0c0-.112-.112-.112-.223-.112Zm-4.689,2.121c-.112,0-.112.223-.112.223a.109.109,0,0,0,.112.112h.223c.112,0,.112-.112.112-.223-.112-.112-.223-.223-.335-.112Zm-4.578,2.121c-.112,0-.112.112-.112.223s.112.112.223.112h0c.112,0,.112-.112.112-.223s-.112-.223-.223-.112Zm-4.689,2.01c-.112,0-.112.223-.112.223,0,.112.112.112.223.112h0c.112,0,.112-.112.112-.223h0c0-.112-.112-.112-.223-.112ZM364.17,354.57c0,.112,0,.223.112.223s.223,0,.223-.112h0c0-.112,0-.223-.112-.223S364.17,354.458,364.17,354.57Zm-4.8-1.786c0,.112,0,.223.112.223s.223,0,.223-.112h0c0-.112,0-.223-.112-.223h0a.346.346,0,0,0-.223.112Zm-5.583-19.763c-.223.112-.223.335-.223.558h0c.112.112.223.223.335.223h.223l.112-.112a.507.507,0,0,0,0-.558c-.112-.223-.223-.223-.447-.112Zm37.85,22.331c-.112.223,0,.447.223.447.223.112.447,0,.447-.223h0c.112-.223,0-.447-.223-.447-.112-.112-.335,0-.447.223Zm-9.267-2.791a.33.33,0,0,0,.223.447h0c.223.112.447,0,.447-.223.112-.223,0-.447-.223-.447-.112-.112-.335,0-.447.223Zm-9.156-2.791a.853.853,0,0,0,.223.558c.223.112.447,0,.447-.223h0c.112-.223,0-.447-.223-.447h0c-.223-.223-.447-.112-.447.112Zm-9.267-2.791a.329.329,0,0,0,.223.447h0c.223.112.447,0,.447-.223.112-.223,0-.447-.223-.447-.112-.112-.335,0-.447.223Zm-9.156-2.791c-.112.223.112.447.335.447a.329.329,0,0,0,.447-.223c.112-.223,0-.447-.223-.447h0c-.335-.112-.558,0-.558.223Zm34.612-9.937c-.223,0-.447.223-.335.447s.223.447.447.335.447-.223.335-.447h0c-.112-.223-.223-.335-.447-.335Zm-9.6.893c-.223,0-.447.223-.335.447,0,.223.223.447.447.335.223,0,.447-.223.335-.447h0a.5.5,0,0,0-.447-.335Zm-9.6,1c-.223,0-.335.223-.335.447s.223.335.447.335.335-.223.335-.447-.223-.335-.447-.335Zm-9.6,1c-.223,0-.335.223-.335.447s.223.335.447.335h0c.223,0,.335-.223.335-.447h0c0-.223-.223-.335-.447-.335Zm-9.6.893c-.223,0-.335.223-.335.447s.223.335.447.335.335-.223.335-.447a.5.5,0,0,0-.447-.335Zm20.321,25.569a.507.507,0,0,0,0,.558h0a.5.5,0,0,0,.558,0c.112-.223.112-.447-.112-.558,0-.112-.335-.112-.447,0Zm-7.481-6.029a.5.5,0,0,0,0,.558.507.507,0,0,0,.558,0h0a.507.507,0,0,0,0-.558h0c-.112-.223-.335-.223-.558,0Zm-7.481-6.141c-.112.223-.112.447.112.558a.507.507,0,0,0,.558,0h0a.5.5,0,0,0,0-.558.712.712,0,0,0-.67,0Zm31.821-26.462c-.223,0-.335.223-.335.447s.223.335.447.335h0c.223,0,.335-.223.223-.447C388.622,324.982,388.4,324.87,388.176,324.982Zm-8.374,1.675c-.223,0-.335.223-.223.447,0,.223.223.335.447.223.223,0,.335-.223.223-.447h0c-.112-.223-.223-.335-.447-.223Zm-8.486,1.675c-.112,0-.112,0-.223.112h0a.41.41,0,0,0-.112.335c0,.223.223.335.447.335h0c.223,0,.335-.223.223-.447,0-.112-.112-.112-.112-.223s-.112-.223-.223-.112Zm-8.374,1.675c-.223,0-.335.223-.223.447,0,.223.223.335.447.335s.335-.223.335-.447h0c-.223-.335-.447-.447-.558-.335ZM380.918,360.6a.276.276,0,0,0,.112.447h0a.276.276,0,0,0,.447-.112h0c.112-.223.112-.335-.112-.558a.446.446,0,0,0-.447.223Zm-7.146-4.8a.276.276,0,0,0,.112.447h0a.276.276,0,0,0,.447-.112h0a.276.276,0,0,0-.112-.447c-.112-.112-.335,0-.447.112Zm-7.146-4.8a.276.276,0,0,0,.112.447h0a.276.276,0,0,0,.447-.112h0a.276.276,0,0,0-.112-.447h0c-.112-.112-.335,0-.447.112Zm-7.146-4.8c-.112.112,0,.335.112.447a.326.326,0,0,0,.335-.558.671.671,0,0,0-.447.112Zm-7.146-4.689c-.112.223-.112.335.112.558a.326.326,0,1,0,.335-.558.233.233,0,0,0-.447,0Zm31.486.67c0,.223.112.335.335.447a.353.353,0,1,0,.223-.67c-.335-.112-.558,0-.558.223Zm-8.374-1.675c0,.223.112.335.335.447a.353.353,0,0,0,.223-.67h0c-.335-.112-.558,0-.558.223Zm-8.486-1.786a.58.58,0,0,0,.223.447h0c.223,0,.335-.112.447-.335a.58.58,0,0,0-.223-.447,1.54,1.54,0,0,0-.447.335Zm-8.374-1.675a.58.58,0,0,0,.223.447h.223a.24.24,0,0,0,.223-.223c0-.223-.112-.335-.335-.447-.112,0-.335.112-.335.223Zm-8.486-1.675v.223c.112,0,.112.112.112.223h.112a.58.58,0,0,0,.447-.223c0-.223-.112-.335-.335-.447-.112-.112-.335.112-.335.223Zm11.054,26.908a.491.491,0,0,0-.112.558c.112.112.335.223.447.112s.223-.335.112-.447c-.112-.335-.335-.335-.447-.223Zm6.922-22.777c0,.112,0,.223.112.223s.223,0,.223-.112,0-.223-.112-.223-.223,0-.223.112Zm-4.689-1.9c0,.112,0,.223.112.223h0c.112,0,.223,0,.223-.112h0a.41.41,0,0,0-.112-.335.24.24,0,0,0-.223.223Zm-4.689-2.01c0,.112,0,.223.112.223h0c.112,0,.223,0,.223-.112s0-.223-.112-.223-.223,0-.223.112Zm-4.689-1.9h0c0,.112,0,.223.112.223s.223,0,.223-.112h0c0-.112,0-.223-.112-.223h0c-.112-.112-.223,0-.223.112Zm13.622-5.136a.24.24,0,0,0-.223.223h0a.24.24,0,0,0,.223.223h0a.223.223,0,0,0,0-.447Zm-7.481,17.976c-.112.112-.112.223,0,.223h0a.237.237,0,1,0,.335-.335A.41.41,0,0,0,360.151,346.531Zm-3.573-3.573c-.112.112-.112.223,0,.223h0a.209.209,0,0,0,.335,0h0a.209.209,0,0,0,0-.335.41.41,0,0,0-.335.112ZM353,339.385a.237.237,0,1,0,.335,0,.209.209,0,0,0-.335,0Zm-3.461-3.685h-.112a.209.209,0,0,0,0,.335h.335a.209.209,0,0,0,0-.335h-.223Zm19.986,4.689c-.112.112,0,.223.112.335s.223,0,.335-.112a.209.209,0,0,0,0-.335h0c-.223,0-.335,0-.447.112Zm-4.8-3.126c-.112.112,0,.223.112.335s.223,0,.335-.112,0-.223-.112-.335h0c-.112,0-.335,0-.335.112Zm-4.913-3.126c-.112.112,0,.223.112.335s.223,0,.335-.112,0-.223,0-.335h0c-.223,0-.335,0-.447.112Zm11.612-5.918c-.112,0-.223,0-.335.223h0a.24.24,0,0,0,.223.223c.112,0,.223,0,.335-.223h0v-.112c0-.112-.112-.112-.223-.112Zm-12.17,18.646a.41.41,0,0,0-.112.335h0a.25.25,0,1,0,.447-.223h0a.214.214,0,0,0-.335-.112Zm-3.238-4.8a.25.25,0,1,0,.223.447h0a.41.41,0,0,0,.112-.335h0c-.112-.112-.223-.223-.335-.112Zm-3.238-4.8a.41.41,0,0,0-.112.335h0a.209.209,0,0,0,.335,0,.41.41,0,0,0,.112-.335Zm43.991-8.6c0,.223.112.447.335.447s.447-.112.447-.335-.112-.447-.335-.447c-.223-.112-.447.112-.447.335Zm-9.714-2.121c0,.223.112.447.335.447s.447-.112.447-.335-.112-.447-.335-.447S387.059,326.321,387.059,326.545Zm-9.714-2.01c0,.223.112.447.335.447s.447-.112.447-.335h0c0-.223-.112-.447-.335-.447S377.345,324.312,377.345,324.535Zm-4.02,38.3c-.223.112-.223.335-.112.558s.335.223.558.112.223-.335.112-.558a.491.491,0,0,0-.558-.112Zm-5.471-8.262c-.223.112-.223.335-.112.558s.335.223.558.112h0c.223-.112.223-.335.112-.558s-.335-.223-.558-.112ZM362.5,346.2c-.223.112-.223.335-.112.558h0c.112.223.335.223.558.112s.223-.335.112-.558a.491.491,0,0,0-.558-.112Zm-5.471-8.262c-.223.112-.223.335-.112.558h0c.112.223.335.223.558.112s.223-.335.112-.558-.335-.223-.558-.112Zm27.913,6.923c-.112.223-.112.447.112.558h0c.223.112.447.112.558-.112s.112-.447-.112-.558a.389.389,0,0,0-.558.112Zm-8.151-5.583c-.112.223-.112.447.112.558h0c.223.112.447.112.558-.112h0c.112-.223.112-.447-.112-.558h0c-.223-.112-.447-.112-.558.112Zm-8.262-5.583c-.112.223-.112.447.112.558s.447.112.558-.112.112-.447-.112-.558h0c-.112-.112-.335-.112-.558.112Zm21.549,6.7c-.112.223-.112.447.112.558s.447.112.558-.112.112-.447-.112-.558a.389.389,0,0,0-.558.112Zm-8.374-5.248a.4.4,0,0,0,.67.447c.112-.223.112-.447-.112-.558s-.447-.112-.558.112Zm-8.374-5.248c-.112.223-.112.447.112.558s.447.112.558-.112.112-.447-.112-.558a.491.491,0,0,0-.558.112ZM352,345.191c-.223,0-.335.223-.335.447h0c0,.223.223.335.447.335s.335-.223.335-.447c0-.335-.223-.447-.447-.335Zm-2.233-9.714a.24.24,0,0,0-.223.223h0a.41.41,0,0,0-.112.335v.112a.408.408,0,0,0,.558.223c.223-.112.335-.335.223-.447h0c0-.112-.112-.112-.112-.223-.112-.223-.223-.223-.335-.223Zm23,15.966c-.223.112-.223.335-.112.558h0c.112.223.335.223.558.112s.223-.335.112-.558-.447-.335-.558-.112Zm-5.806-8.039c-.223.112-.223.335-.112.558h0c.112.223.335.223.558.112s.223-.335.112-.558-.335-.335-.558-.112Zm-5.694-8.039c-.223.112-.223.335-.112.558s.335.223.558.112.223-.335.112-.558-.447-.335-.558-.112Zm12.952-1a.34.34,0,0,0,0,.447h0a.316.316,0,1,0,0-.447Zm-5.359-5.136a.34.34,0,0,0,0,.447h0a.316.316,0,1,0,0-.447Zm-9.156,10.83c-.112.112-.223.223-.223.335h0a.58.58,0,0,0,.447.223h0c.112-.112.223-.223.112-.447a.214.214,0,0,0-.335-.112Zm-3.015-6.811c-.112.112-.223.223-.112.447.112.112.223.223.447.112.112-.112.223-.223.112-.447-.112-.112-.335-.223-.447-.112Z" transform="translate(-229.53 -148.319)" fill="#fff" opacity="0.86"/>
      <path id="sweater" d="M320.85,225.2s-38.409,55.045-25.68,111.206c0,0,41.647,20.209,78.939-15.855,0,0-34.389-67.327-36.287-86.419h0L320.85,225.2" transform="translate(-236.119 -159.856)" fill="url(#linear-gradient-26)"/>
      <path id="cup" d="M406.412,238.5H429.97v17.195a11.841,11.841,0,0,1-11.835,11.835h0A11.841,11.841,0,0,1,406.3,255.695l.112-17.195Z" transform="translate(-222.868 -158.306)" fill="#ff6359"/>
      <path id="handle" d="M416.069,244.9h3.461a2.717,2.717,0,0,1,2.68,2.68h0v17.641H413.5V247.58A2.553,2.553,0,0,1,416.069,244.9Z" transform="translate(-222.029 -157.56)" fill="url(#linear-gradient-27)"/>
      <path id="R_hand" d="M403.9,269.2s6.7-12.952,10.607-15.408c0,0,0,8.932,4.02,8.821,4.689-.112,4.913-8.262,4.689-12.17-.112-2.791-.447-2.568,2.121-1.786,1.675.558,11.277,5.248,9.379,18.2s-20.991,13.063-23.559,14.627l-3.35,2.01L403.9,269.2" transform="translate(-223.147 -157.183)" fill="url(#linear-gradient-28)"/>
      <path id="neck" d="M334.983,235.321,317.9,226.389,323.148,215a26.6,26.6,0,0,0,15.408,3.461C337.663,220.918,333.978,231.86,334.983,235.321Z" transform="translate(-233.169 -161.044)" fill="url(#linear-gradient-29)"/>
      <path id="R_sleeve" d="M319.007,225.2s18.981,1.228,26.573,25.234,9.379,42.317,25.457,39.19,33.943-11.612,43.656-19.2L425.412,311.4s-9.825,14.738-24.117,16.078-25.01,9.825-33.384,13.4-27.578,9.379-36.957-4.02-24.564-56.161-22.331-93.677A152.835,152.835,0,0,1,319.007,225.2Z" transform="translate(-234.276 -159.856)" fill="url(#linear-gradient-30)"/>
      <path id="chair_back" d="M371.07,402.069H268.237l-25.9-138.226a18.917,18.917,0,0,1,15.185-22.107,18.177,18.177,0,0,1,3.461-.335h64.2a18.924,18.924,0,0,1,18.646,15.408Z" transform="translate(-242.012 -157.968)" fill="#ff6359"/>
      <path id="face" d="M354.206,208.616s-2.568,10.049-12.952,12.393c-8.374,1.9-15.631-1.675-18.2-3.126.223-.335,4.131-6.922,0-9.6-4.243-2.791-4.243-4.243-4.354-6.253s2.9-4.8,7.927-3.126c5.024,1.786,10.049-2.568,10.384-8.6a31.769,31.769,0,0,0,15.185-1c.67,1.563,4.354,11.165,5.918,13.845C359.9,206.048,355.657,208.393,354.206,208.616Z" transform="translate(-233.076 -164.039)" fill="#ffbeb6"/>
      <path id="eyeglasses" d="M359.623,189.258a3.764,3.764,0,0,0-1.9-.558c-1.786,0-3.685,1.451-4.578,3.908-.112.335-.223.782-.335,1.228a3.3,3.3,0,0,0-1.117-.223,5.908,5.908,0,0,0-3.35,1,1.416,1.416,0,0,0-.112-.67,7.073,7.073,0,0,0-1.675-3.573,3.01,3.01,0,0,0-.893-.782c-2.01-1.228-4.354-.67-6.029,1.34a9.871,9.871,0,0,0-1.563,2.568,11.289,11.289,0,0,0-.558,5.806,7.6,7.6,0,0,0,1.786,3.685,4.858,4.858,0,0,0,.782.67,4.129,4.129,0,0,0,4.243.112,7.215,7.215,0,0,0,3.238-4.02,10.152,10.152,0,0,0,.67-4.02,5.253,5.253,0,0,1,3.573-1.117c.112,0,.335.112.447.112v.447h0a1.416,1.416,0,0,0,.112.67c.782,1.9,1.563,3.8,2.233,5.248,2.233,1.451,5.136,0,6.476-3.35C362.638,194.618,361.856,190.71,359.623,189.258ZM347.007,199.2a7.058,7.058,0,0,1-2.9,3.573,3.228,3.228,0,0,1-3.461-.112,5.663,5.663,0,0,1-2.121-3.573,10.122,10.122,0,0,1,.447-5.136,7.1,7.1,0,0,1,2.121-3.015,3.521,3.521,0,0,1,4.354-.447l.112.112a1.96,1.96,0,0,1,.558.447,6.534,6.534,0,0,1,1.563,3.015,11.681,11.681,0,0,1-.67,5.136Zm13.622-1.786c-1.117,2.791-3.461,4.131-5.359,2.9s-2.456-4.466-1.34-7.257,3.461-4.131,5.359-2.9C361.075,191.268,361.745,194.618,360.628,197.409Z" transform="translate(-230.901 -164.109)" fill="#fff"/>
      <path id="hair" d="M369.016,168.266a.408.408,0,0,0-.558-.223.6.6,0,0,0-.335.447c4.243,14.18-6.811,23.335-19.093,24.675,5.471-.782,11.835-3.238,15.966-10.049,8.262-13.733-3.8-18.981-10.719-15.3s-11.835,10.83-11.835,10.83-10.83-8.486-28.36-1.452-11.054,28.36-4.8,34.5,15.631,8.821,15.631,8.821,4.243-6.811,0-9.6-4.243-4.243-4.354-6.253,2.9-4.8,7.927-3.126c4.913,1.675,9.825-2.456,10.384-8.262h0c8.151,2.01,16.971,1.34,23.67-4.243A19.147,19.147,0,0,0,369.016,168.266Z" transform="translate(-234.934 -166.676)" fill="#428dfc"/>
    </g>
  </g>
</svg>
